<svg aria-hidden="true" style="position: absolute; width: 0; height: 0; overflow: hidden;" version="1.1" xmlns="http://www.w3.org/2000/svg" xmlns:xlink="http://www.w3.org/1999/xlink">
<defs>
<symbol id="pixabay" viewBox="0 0 64 32">
<path d="M26.198 7.463c-0.502-0.355-0.867-0.716-0.867-1.161h-2.793c0 0.8-0.365 1.161-0.816 1.161h-0.747v8.123h14.504v-8.123h-9.333zM25.331 9.783h-2.613v-1.159h2.901v0.933zM30.241 14.301c-1.655 0-3.001-1.329-3.001-2.963s1.346-2.894 3.001-2.894 3.001 1.261 3.001 2.894-1.346 2.963-3.001 2.963zM31.854 11.338c0 0.878-0.724 1.593-1.613 1.593s-1.613-0.715-1.613-1.593 0.724-1.593 1.613-1.593 1.613 0.715 1.613 1.593zM43.024 6.357l-3.611 9.206-2.771-1.111v-1.569l1.924 0.788 2.541-6.477-9.521-3.641-0.883 2.749h-1.584l1.625-4.642 12.279 4.697zM13.584 21.141c1.597-0.037 3.096 1.262 3.264 2.855 0.202 1.399-0.622 2.853-1.912 3.421-0.782 0.388-1.664 0.269-2.505 0.288h-0.821v2.631h-1.301l0.004-6.092c0.043-1.513 1.281-2.867 2.777-3.069 0.145-0.023 0.312-0.036 0.482-0.036 0.004 0 0.009 0 0.013 0h-0.001zM13.584 26.405c0.939 0.023 1.813-0.709 1.959-1.638 0.187-0.936-0.411-1.941-1.323-2.222-0.882-0.313-1.941 0.099-2.373 0.931-0.334 0.569-0.215 1.241-0.237 1.868v1.067h1.973zM17.478 21.11h1.286v6.56h-1.286zM22.63 25.255h0.047l1.829 2.437h1.6l-2.485-3.376 2.204-3.188h-1.6l-1.547 2.251h-0.047l-1.547-2.251h-1.6l2.204 3.188-2.485 3.376h1.6zM29.013 21.111c1.303-0.026 2.553 0.828 3.040 2.033 0.252 0.56 0.248 1.18 0.24 1.781v2.752c-1.161-0.004-2.323 0.008-3.483-0.006-1.335-0.065-2.56-1.038-2.938-2.316-0.35-1.11-0.053-2.4 0.765-3.229 0.616-0.637 1.491-1.022 2.381-1.013zM30.987 26.375l-0.010-2.19c-0.077-0.978-0.983-1.797-1.964-1.772-0.933-0.022-1.813 0.701-1.959 1.625-0.171 0.886 0.338 1.853 1.184 2.183 0.521 0.227 1.097 0.133 1.653 0.154h1.095zM36.204 21.148c1.547-0.037 2.987 1.174 3.227 2.692 0.278 1.438-0.533 2.987-1.874 3.584-1.309 0.618-2.987 0.22-3.892-0.907-0.558-0.657-0.798-1.531-0.75-2.382v-5.625h1.301v2.631h1.989zM36.204 26.412c0.988 0.027 1.892-0.803 1.964-1.787 0.124-0.977-0.601-1.96-1.568-2.138-0.535-0.073-1.077-0.024-1.616-0.038h-0.768l0.015 2.226c0.103 0.98 0.989 1.756 1.973 1.737zM43.254 21.111c1.303-0.026 2.553 0.828 3.040 2.033 0.252 0.56 0.248 1.18 0.24 1.781v2.752c-1.161-0.004-2.323 0.008-3.483-0.006-1.335-0.065-2.56-1.038-2.938-2.316-0.35-1.11-0.053-2.4 0.765-3.229 0.616-0.637 1.491-1.022 2.38-1.013zM45.228 26.375l-0.010-2.19c-0.077-0.978-0.983-1.797-1.964-1.772-0.933-0.022-1.813 0.701-1.959 1.625-0.171 0.886 0.338 1.853 1.184 2.183 0.521 0.227 1.097 0.133 1.653 0.154h1.101zM53.69 21.127l-0.004 6.077c-0.053 1.6-1.417 3.027-3.017 3.11l-0.907 0.009v-1.301c0.555-0.003 1.149 0.053 1.641-0.267 0.597-0.351 0.991-0.99 0.991-1.721 0-0.007-0-0.015-0-0.022v0.001c-1.153 0.93-2.941 0.882-4.063-0.078-0.817-0.66-1.264-1.721-1.2-2.765v-3.050h1.301l0.010 3.477c0.071 0.96 0.922 1.762 1.877 1.784 0.969 0.075 1.901-0.677 2.046-1.636 0.053-0.573 0.017-1.152 0.029-1.728v-1.897h1.301z"></path>
</symbol>
</defs>
</svg>
